# xmcd CD database file
#
# Track frame offsets:
#	150
#	30505
#	58485
#	78867
#	113047
#	135537
#	158910
#	182305
#	203187
#	227662
#
# Disc length: 3381 seconds
#
# Revision: 9
# Processed by: cddbd v1.5.2PL0 Copyright (c) Steve Scherf et al.
# Submitted via: CDex 1.70beta2
#
DISCID=790d330a
DTITLE=TWO-MIX Single Collection - TWO-MIX Single Collection - Dream Tactix
DYEAR=2008
DGENRE=Salsa
TTITLE0=Winter Love Express
TTITLE1=Beat of Destiny
TTITLE2=Time Distortion EX
TTITLE3=Last Impression
TTITLE4=Time Distortion DX
TTITLE5=Thousand Nights ('98 Selection)
TTITLE6=Milky Road
TTITLE7=Callin' You ('98 Selection)
TTITLE8=I Love You ('98 Selection)
TTITLE9=White Reflection Pure
EXTD=YEAR: 2008
EXTT0=
EXTT1=
EXTT2=
EXTT3=
EXTT4=
EXTT5=
EXTT6=
EXTT7=
EXTT8=
EXTT9=
PLAYORDER=
